<svg width="96" height="96" xmlns="http://www.w3.org/2000/svg" xmlns:xlink="http://www.w3.org/1999/xlink" xml:space="preserve" overflow="hidden"><g transform="translate(125 -220)"><path d="M-98.973 272C-98.973 259.85-89.1233 250-76.973 250-64.8227 250-54.973 259.85-54.973 272-54.973 284.15-64.8227 294-76.973 294-89.1084 293.964-98.9373 284.135-98.973 272ZM-74.973 244.1-74.973 240-70.973 240C-69.8684 240-68.973 239.105-68.973 238-68.973 236.895-69.8684 236-70.973 236L-82.973 236C-84.0776 236-84.973 236.895-84.973 238-84.973 239.105-84.0776 240-82.973 240L-78.973 240-78.973 244.1C-94.3882 245.195-105.997 258.579-104.902 273.994-104.432 280.618-101.621 286.858-96.973 291.6L-100.773 299.1C-101.273 300.085-100.88 301.289-99.8954 301.789-99.8879 301.793-99.8805 301.796-99.873 301.8-99.5855 301.914-99.2817 301.981-98.973 302-98.2194 301.982-97.533 301.562-97.173 300.9L-93.873 294.3C-83.8884 301.901-70.0576 301.901-60.073 294.3L-56.773 300.9C-56.413 301.562-55.7266 301.982-54.973 302-54.6643 301.981-54.3605 301.914-54.073 301.8-53.082 301.312-52.674 300.113-53.1618 299.122-53.1655 299.115-53.1692 299.107-53.173 299.1L-56.973 291.6C-46.1547 280.564-46.3311 262.848-57.367 252.029-62.1089 247.381-68.3494 244.57-74.973 244.1Z" fill="#556D6F"/><path d="M-78.973 270-92.973 270-92.973 274-76.973 274C-75.8698 273.997-74.9763 273.103-74.973 272L-74.973 256-78.973 256Z" fill="#556D6F"/><path d="M-44.773 244.2-53.073 235.9C-54.6105 234.326-57.1328 234.296-58.7068 235.834-58.7291 235.856-58.7512 235.878-58.773 235.9L-63.973 241-49.973 255-44.773 249.8C-43.273 248.235-43.273 245.765-44.773 244.2Z" fill="#556D6F"/><path d="M-89.973 241-95.173 235.8C-96.7105 234.226-99.2328 234.196-100.807 235.734-100.829 235.756-100.851 235.778-100.873 235.8L-109.173 244.1C-110.747 245.637-110.777 248.16-109.239 249.734-109.217 249.756-109.195 249.778-109.173 249.8L-103.973 255Z" fill="#556D6F"/><path d="M-110.8 280.4-108 277.6C-111.067 274.419-111.067 269.381-108 266.2L-110.8 263.4C-115.467 268.106-115.467 275.694-110.8 280.4Z" fill="#556D6F"/><path d="M-116.4 286-113.6 283.2C-119.841 276.996-119.87 266.907-113.666 260.666-113.644 260.644-113.622 260.622-113.6 260.6L-116.4 257.8C-124.187 265.477-124.276 278.013-116.599 285.801-116.533 285.868-116.467 285.934-116.4 286Z" fill="#556D6F"/><path d="M-43.5 280.4-46.3 277.6C-43.2333 274.419-43.2333 269.381-46.3 266.2L-43.5 263.4C-38.8331 268.106-38.8331 275.694-43.5 280.4Z" fill="#556D6F"/><path d="M-37.9 286-40.7 283.2C-34.4592 276.996-34.4296 266.907-40.634 260.666-40.6559 260.644-40.6779 260.622-40.7 260.6L-37.9 257.8C-30.1128 265.477-30.0236 278.013-37.7007 285.801-37.7667 285.868-37.8331 285.934-37.9 286Z" fill="#556D6F"/></g></svg>