<svg width="96" height="96" xmlns="http://www.w3.org/2000/svg" xmlns:xlink="http://www.w3.org/1999/xlink" xml:space="preserve" overflow="hidden"><g transform="translate(32 -322)"><path d="M-0.816 373.328C-4.9316 374.716-8.7884 376.777-12.229 379.428-14.5654 381.253-15.9515 384.036-16 387L-16 404.57-15.11 405.164C-13.032 406.549-9.441 407.637-5 408.434L-5 402 14 402 14 410.047C14.758 410.058 15.517 410.064 16.277 410.065 16.852 410.065 17.426 410.058 18 410.052L18 402 37 402 37 408.506C41.61 407.69 45.256 406.555 47.2 405.1L48 404.5 48 386.958C47.9468 384.022 46.5761 381.266 44.267 379.452 40.8286 376.799 36.9744 374.735 32.861 373.343L26.626 370.843C26.2492 370.691 26.0018 370.326 26 369.92L26 367.472C29.7913 364.442 31.9991 359.853 32 355L32 348 33 348C34.1046 348 35 347.105 35 346 35 344.895 34.1046 344 33 344L32 344C31.6518 338.478 28.4751 333.527 23.6 330.91L22 337.24C21.8872 337.697 21.4707 338.014 21 338L20.76 338C20.2194 337.887 19.8728 337.357 19.9859 336.816 19.9859 336.816 19.986 336.816 19.986 336.816 19.986 336.797 19.995 336.779 20 336.76L21.9 329.27C21.5667 327.941 20.3758 327.007 19.006 327L13.006 327C11.634 327.004 10.4399 327.939 10.106 329.27L12.006 336.76C12.1509 337.292 11.8377 337.841 11.306 337.987L11.246 338 11.006 338C10.5353 338.014 10.1188 337.697 10.006 337.24L8.456 330.91C3.5809 333.527 0.404202 338.478 0.0559998 344L-0.993999 344C-2.0986 344-2.994 344.895-2.994 346-2.994 347.105-2.0986 348-0.993999 348L0.00600052 348 0.00600052 355C0.00740051 359.849 2.2123 364.435 5.999 367.465L5.999 369.92C6.0007 370.324 5.7575 370.689 5.384 370.843ZM4 355 4 348 28 348 28 355C28 361.627 22.6274 367 16 367 9.3726 367 4 361.627 4 355ZM14 398-4.682 398-1.544 377.977 6.893 374.546C6.953 374.521 7.006 374.487 7.065 374.46L14.005 391ZM16 375C13.312 375.026 10.6357 374.642 8.064 373.859 9.2848 372.917 9.9999 371.462 10 369.92L10 369.82C13.8473 371.392 18.1577 371.392 22.005 369.82L22.005 369.92C22.0034 371.469 22.725 372.93 23.956 373.871 21.3764 374.648 18.6939 375.029 16 375ZM18 398 18 391 24.938 374.465C24.997 374.492 25.051 374.527 25.112 374.552L33.612 377.952 36.7 398Z" fill="#556D6F"/></g></svg>